<svg width="42" height="42" viewBox="0 0 42 42" fill="none" xmlns="http://www.w3.org/2000/svg">
<path fill-rule="evenodd" clip-rule="evenodd" d="M32.1614 9.84888C29.198 6.8855 25.2605 5.25 21.0667 5.25C12.4226 5.25 5.3833 12.2842 5.3833 20.9282C5.37817 23.6917 6.10107 26.3884 7.4751 28.7673L5.25 36.8936L13.5659 34.7095C15.8525 35.9604 18.4365 36.6167 21.0615 36.6218H21.0667C29.7107 36.6218 36.7449 29.5876 36.75 20.9385C36.75 16.7498 35.1196 12.8123 32.1614 9.84888ZM21.0667 33.9712H21.0615C18.7236 33.9712 16.4268 33.3406 14.4272 32.1562L13.9504 31.8743L9.01318 33.1663L10.3308 28.3572L10.0232 27.865C8.71582 25.7886 8.02881 23.3892 8.02881 20.9282C8.02881 13.7454 13.8787 7.90063 21.0718 7.90063C24.553 7.90063 27.824 9.25928 30.2849 11.7202C32.7458 14.1863 34.0994 17.4573 34.0994 20.9385C34.0994 28.1265 28.2495 33.9712 21.0667 33.9712ZM28.2136 24.2095C27.824 24.0146 25.8962 23.0662 25.5374 22.938C25.1785 22.8047 24.917 22.7432 24.6555 23.1328C24.394 23.5276 23.6455 24.4094 23.4148 24.6709C23.1892 24.9272 22.9585 24.9631 22.5688 24.7683C22.1741 24.5735 20.9128 24.1582 19.4158 22.8201C18.252 21.7844 17.4624 20.4976 17.2368 20.1079C17.0061 19.7131 17.2112 19.5029 17.406 19.3081C17.5854 19.1338 17.8008 18.8518 17.9956 18.6211C18.1904 18.3955 18.2571 18.2314 18.3904 17.97C18.5186 17.7085 18.4519 17.4778 18.3545 17.283C18.2571 17.0881 17.4727 15.1553 17.1445 14.3708C16.8267 13.6069 16.5037 13.7146 16.2627 13.6992C16.0371 13.689 15.7756 13.689 15.5142 13.689C15.2527 13.689 14.8271 13.7864 14.4683 14.1812C14.1094 14.5708 13.0994 15.5193 13.0994 17.447C13.0994 19.3748 14.5041 21.241 14.699 21.5024C14.8938 21.7588 17.4624 25.7168 21.3948 27.4138C22.3279 27.8188 23.0559 28.0598 23.625 28.2393C24.5632 28.5366 25.4194 28.4956 26.0962 28.3982C26.8499 28.2854 28.4136 27.4497 28.7417 26.532C29.0647 25.6194 29.0647 24.835 28.9673 24.6709C28.8699 24.5068 28.6084 24.4094 28.2136 24.2095Z" fill="white"/>
</svg>
