<?xml version="1.0" standalone="no"?>
<!DOCTYPE svg PUBLIC "-//W3C//DTD SVG 20010904//EN"
 "http://www.w3.org/TR/2001/REC-SVG-20010904/DTD/svg10.dtd">
<svg version="1.0" xmlns="http://www.w3.org/2000/svg"
 width="1867.000000pt" height="1867.000000pt" viewBox="0 0 1867.000000 1867.000000"
 preserveAspectRatio="xMidYMid meet">
<metadata>
Created by potrace 1.14, written by Peter Selinger 2001-2017
</metadata>
<g transform="translate(0.000000,1867.000000) scale(0.100000,-0.100000)"
fill="#000000" stroke="none">
<path d="M7563 13388 c-16 -20 -87 -172 -85 -180 1 -5 -2 -8 -8 -8 -5 0 -10
-5 -10 -10 0 -10 -45 -105 -225 -475 -156 -322 -354 -732 -366 -760 -5 -11
-13 -27 -18 -35 -5 -8 -20 -39 -33 -67 l-23 -53 -1030 0 -1030 -1 -97 -197
c-53 -108 -97 -201 -97 -206 1 -5 -3 -12 -8 -15 -17 -12 -33 -52 -27 -64 4 -7
3 -9 -1 -4 -8 7 -75 -116 -75 -140 0 -6 -3 -13 -8 -15 -7 -3 -236 -457 -237
-470 0 -3 -3 -10 -8 -14 -8 -9 -83 -163 -87 -179 -1 -5 -10 -21 -19 -35 -25
-37 -311 -615 -311 -629 0 -6 -4 -11 -8 -11 -7 0 -27 -43 -29 -64 -1 -5 -5
-12 -10 -15 -10 -8 -93 -176 -93 -190 0 -6 -4 -11 -10 -11 -5 0 -10 -9 -10
-19 0 -11 -5 -23 -11 -26 -10 -7 -26 -42 -27 -59 0 -5 -4 -12 -9 -15 -5 -3
-19 -28 -32 -56 -34 -75 -115 -239 -121 -245 -3 -3 -50 -97 -105 -210 -55
-113 -104 -208 -108 -211 -5 -3 -9 -10 -9 -15 -1 -18 -51 -90 -82 -118 -35
-32 -107 -66 -140 -66 -37 0 -89 21 -111 44 -48 51 -60 79 -59 148 l0 66 297
596 c163 328 297 601 297 606 0 6 5 10 10 10 6 0 10 5 10 11 0 5 45 100 100
210 55 109 97 199 93 199 -5 0 -3 4 3 8 13 8 254 491 253 506 0 5 3 12 9 15
10 7 94 177 92 187 -1 4 2 10 7 13 10 7 48 84 44 90 -2 2 1 7 6 10 8 5 147
279 148 291 0 3 5 12 10 20 19 30 115 229 115 239 0 5 4 11 8 13 9 3 112 214
112 228 0 5 5 10 11 12 5 2 11 10 13 18 2 15 8 28 48 98 10 18 18 39 18 47 0
8 5 15 10 15 6 0 10 5 10 11 0 15 143 303 153 307 4 2 7 8 7 14 0 15 293 602
303 606 4 2 5 7 2 12 -3 5 2 15 10 24 9 8 15 18 14 21 -3 12 24 65 33 65 5 0
7 4 4 8 -3 5 4 23 15 41 11 18 17 36 14 39 -3 3 -545 6 -1205 6 l-1199 1 -38
-75 c-21 -41 -42 -78 -48 -82 -5 -4 -7 -8 -3 -8 3 0 -32 -78 -79 -172 -125
-255 -193 -397 -193 -408 0 -6 -4 -10 -10 -10 -5 0 -10 -5 -10 -10 0 -15 -42
-104 -53 -111 -5 -3 -9 -10 -8 -15 0 -5 -38 -88 -85 -184 -47 -96 -86 -179
-87 -185 -1 -5 -5 -12 -8 -15 -9 -8 -71 -138 -69 -146 1 -4 -2 -10 -7 -13 -11
-7 -63 -115 -63 -129 0 -5 -6 -15 -14 -21 -8 -7 -18 -26 -21 -42 -4 -16 -11
-29 -16 -29 -5 0 -9 -9 -9 -20 0 -11 -5 -20 -12 -20 -6 0 -9 -3 -6 -6 3 -3
-39 -96 -94 -206 -54 -111 -100 -206 -101 -212 -1 -6 -8 -17 -15 -24 -6 -7
-12 -22 -12 -32 0 -10 -3 -20 -7 -22 -10 -4 -117 -220 -115 -230 1 -5 -3 -8
-8 -8 -6 0 -10 -5 -10 -12 0 -7 -40 -94 -90 -195 -49 -100 -90 -187 -90 -192
0 -6 -4 -11 -10 -11 -5 0 -10 -5 -10 -11 0 -6 -40 -92 -88 -192 -49 -100 -95
-197 -103 -214 -7 -18 -17 -33 -21 -33 -5 0 -8 -5 -8 -11 0 -15 -42 -102 -53
-110 -5 -3 -8 -8 -7 -10 3 -8 -21 -60 -113 -246 -52 -106 -92 -193 -89 -193 4
0 3 -4 -3 -8 -9 -6 -34 -54 -96 -187 -13 -27 -27 -51 -31 -53 -5 -2 -8 -8 -8
-14 0 -12 -80 -176 -294 -608 -154 -312 -182 -375 -231 -515 -16 -46 -45 -158
-51 -195 -2 -14 -7 -36 -10 -50 -3 -14 -8 -34 -10 -45 -7 -30 -6 -255 1 -290
48 -253 157 -424 350 -553 78 -52 205 -115 235 -117 3 0 10 -3 15 -6 19 -12
180 -47 245 -54 77 -8 2679 -8 2795 0 162 12 198 15 268 30 40 8 84 16 99 19
15 3 31 7 36 10 5 3 19 7 33 10 89 17 346 134 400 182 8 8 21 14 27 14 7 0 12
5 12 10 0 6 6 10 14 10 8 0 16 3 18 8 2 4 21 20 43 37 60 44 59 43 158 141
110 109 144 147 177 196 14 21 28 38 33 38 4 0 7 6 7 14 0 8 3 16 8 18 12 5
87 119 131 200 24 43 47 80 52 84 5 3 7 10 4 15 -4 5 -3 9 2 9 4 0 19 27 33
60 14 33 28 60 33 60 4 0 7 4 7 10 0 5 34 79 75 165 41 85 84 176 95 202 29
65 54 117 60 123 3 3 6 10 7 15 1 6 34 78 75 160 40 83 71 153 70 158 -1 4 3
7 8 7 6 0 10 5 10 11 0 11 24 64 111 242 21 42 34 77 31 77 -4 0 -2 4 3 8 6 4
28 45 50 92 22 47 42 87 45 90 3 3 6 10 7 15 1 6 35 80 76 165 41 85 100 209
132 275 75 155 89 188 87 198 -1 4 3 7 8 7 6 0 10 4 10 9 0 5 37 85 81 177 45
93 82 175 82 182 0 6 4 12 8 12 4 0 11 10 15 23 4 12 42 94 84 182 141 292
154 320 152 328 -1 4 2 7 8 7 6 0 9 3 8 8 -1 4 27 66 61 137 35 72 64 136 64
143 0 6 4 12 8 12 3 0 17 26 30 58 12 31 27 60 32 63 4 3 9 12 11 20 1 8 28
68 60 135 l58 120 255 0 254 0 -6 -23 c-3 -13 -79 -172 -170 -353 -90 -182
-160 -330 -157 -330 4 0 2 -4 -4 -8 -15 -10 -47 -72 -37 -72 5 0 3 -4 -2 -8
-12 -8 -80 -145 -76 -151 1 -2 -1 -7 -6 -10 -12 -8 -157 -303 -155 -313 1 -5
-2 -8 -8 -8 -6 0 -9 -3 -8 -7 2 -9 -43 -105 -53 -113 -3 -3 -12 -22 -20 -42
-7 -21 -17 -38 -21 -38 -4 0 -8 -9 -8 -20 0 -11 -4 -20 -9 -20 -5 0 -12 -12
-16 -27 -3 -15 -16 -41 -28 -57 -12 -17 -21 -32 -20 -33 4 -7 -11 -43 -18 -43
-5 0 -8 -3 -8 -7 3 -13 -25 -73 -33 -73 -4 0 -8 -5 -8 -11 0 -17 -301 -623
-314 -631 -6 -4 -7 -8 -3 -8 5 0 -8 -30 -27 -67 -20 -37 -36 -73 -36 -80 0 -7
-4 -13 -10 -13 -5 0 -10 -4 -10 -9 0 -5 -89 -189 -197 -408 -109 -219 -196
-400 -194 -402 1 -2 -1 -7 -6 -10 -12 -9 -45 -71 -38 -71 4 0 -1 -7 -9 -16 -9
-8 -14 -19 -11 -24 3 -5 2 -10 -2 -12 -9 -3 -207 -401 -218 -435 -3 -13 -11
-23 -17 -23 -6 0 -8 -3 -5 -6 4 -4 -2 -19 -11 -33 -10 -14 -27 -46 -37 -71
-10 -25 -25 -52 -32 -61 -7 -8 -13 -18 -13 -22 0 -13 -74 -162 -82 -165 -4 -2
-8 -8 -8 -13 0 -15 -93 -204 -102 -207 -4 -2 -8 -9 -8 -16 0 -7 -23 -56 -50
-110 -28 -55 -48 -102 -44 -105 3 -3 536 -6 1184 -6 l1178 -1 82 167 c46 92
82 171 81 175 -2 4 2 10 7 13 10 7 252 497 252 511 0 6 3 10 8 10 4 0 18 27
31 60 13 33 28 60 33 60 4 0 7 3 6 7 -2 7 85 186 408 836 67 136 120 247 116
247 -4 0 -2 4 3 8 13 9 120 224 117 235 -1 4 3 7 8 7 6 0 10 4 10 10 0 14 63
145 72 148 4 2 8 12 8 22 0 9 7 23 15 30 8 6 14 15 13 18 -1 4 61 135 139 292
341 692 402 815 400 820 -1 3 8 20 21 38 13 17 20 32 15 32 -4 0 -3 4 2 8 6 4
21 32 35 62 14 30 28 56 33 58 4 2 7 12 7 22 0 9 7 23 15 30 8 7 15 18 15 25
0 16 31 77 43 86 5 3 7 8 6 10 -2 2 79 171 180 375 l183 370 909 0 909 -1 61
120 c34 66 65 125 69 130 4 6 36 66 72 135 75 142 142 271 201 380 22 41 61
116 87 165 26 50 73 140 105 200 32 61 70 133 84 160 15 28 31 57 36 65 5 8
10 21 12 29 1 8 5 17 10 20 4 3 39 67 77 141 38 74 74 142 82 150 7 8 16 27
19 43 4 15 10 27 14 27 4 0 7 9 8 20 2 20 -4 20 -2531 20 -2015 0 -2536 -3
-2543 -12z"/>
<path d="M10937 10934 c-1 -1 -49 -4 -107 -8 -94 -6 -129 -9 -195 -21 -124
-20 -420 -135 -433 -167 -2 -4 -9 -8 -16 -8 -7 0 -21 -8 -32 -19 -11 -10 -30
-24 -43 -30 -50 -27 -174 -142 -266 -246 -90 -103 -212 -317 -373 -655 -27
-58 -78 -163 -112 -235 -178 -371 -179 -372 -358 -745 -33 -69 -90 -188 -127
-265 -37 -77 -84 -176 -105 -220 -46 -99 -124 -260 -225 -470 -75 -154 -135
-281 -215 -450 -21 -44 -73 -152 -115 -240 -109 -226 -165 -344 -165 -348 0
-1 437 -3 970 -2 l970 0 14 27 c8 15 21 40 30 55 8 15 85 170 169 343 85 173
220 447 300 608 80 160 142 292 139 292 -4 0 -2 4 4 8 5 4 75 135 153 292 79
157 165 326 191 375 26 50 71 135 100 190 29 55 89 168 133 250 45 83 79 150
77 150 -10 0 87 81 117 98 61 34 163 11 191 -43 17 -34 8 -99 -24 -168 -14
-31 -77 -159 -140 -285 -63 -125 -114 -234 -114 -241 0 -8 -4 -16 -8 -18 -10
-4 -392 -771 -392 -786 0 -6 -3 -12 -7 -14 -5 -1 -18 -25 -31 -53 -13 -27 -27
-57 -32 -65 -11 -19 -73 -144 -139 -279 -28 -57 -55 -109 -59 -115 -5 -6 -15
-27 -22 -46 -7 -19 -23 -48 -34 -65 -12 -16 -20 -31 -18 -33 2 -2 -753 -1528
-781 -1577 -40 -72 -84 -171 -77 -175 6 -4 1918 -5 1952 -1 5 1 44 76 89 169
77 161 87 181 109 219 5 10 56 115 114 233 101 210 187 387 416 855 62 127
151 309 197 405 47 96 132 270 188 385 56 116 140 287 185 380 45 94 109 223
141 288 32 64 55 117 51 117 -4 0 -2 4 3 8 6 4 27 41 47 82 20 41 87 179 148
305 138 284 219 447 231 461 5 6 7 13 4 16 -3 3 1 11 10 18 8 7 15 17 15 22 0
5 20 51 44 101 77 160 114 257 145 382 31 124 34 322 7 425 -40 150 -150 304
-276 387 -89 59 -233 117 -320 129 -14 2 -38 6 -55 10 -23 5 -2231 13 -2238 8z"/>
<path d="M15737 10934 c-1 -1 -51 -4 -112 -7 -60 -4 -119 -8 -130 -10 -11 -3
-42 -7 -70 -11 -48 -7 -144 -30 -175 -43 -8 -3 -17 -7 -20 -8 -29 -7 -92 -32
-120 -46 -19 -11 -38 -19 -42 -19 -8 0 -150 -84 -174 -103 -152 -123 -231
-197 -283 -267 -14 -19 -29 -37 -32 -40 -4 -3 -34 -48 -68 -100 -67 -103 -188
-344 -428 -849 -24 -51 -49 -103 -54 -115 -5 -11 -13 -28 -18 -36 -10 -15 -84
-172 -141 -295 -17 -38 -36 -77 -41 -85 -5 -8 -13 -24 -18 -35 -5 -11 -41 -87
-81 -170 -39 -82 -87 -184 -107 -225 -20 -41 -40 -82 -44 -90 -5 -8 -13 -24
-18 -35 -13 -29 -132 -278 -289 -605 -33 -69 -85 -179 -117 -245 -32 -66 -86
-178 -120 -250 -34 -71 -86 -179 -114 -240 -29 -60 -63 -130 -76 -155 l-24
-46 948 0 948 0 81 161 c87 170 168 323 221 418 18 31 29 57 25 57 -4 0 -1 6
8 13 8 6 31 41 49 77 18 36 36 67 39 70 4 3 12 19 19 36 l12 31 190 1 c182 2
190 1 184 -17 -5 -17 -112 -234 -521 -1056 -63 -126 -114 -235 -114 -242 0 -6
-3 -13 -8 -15 -9 -4 -187 -360 -184 -370 1 -3 -5 -12 -13 -18 -8 -7 -15 -16
-15 -21 0 -5 -40 -90 -90 -189 -49 -99 -90 -187 -92 -196 -3 -16 70 -17 967
-16 534 0 976 1 983 1 11 1 29 33 30 55 0 5 4 12 9 15 9 6 35 58 168 336 42
88 80 167 86 175 5 8 13 24 18 35 5 11 57 119 117 240 59 121 108 222 109 225
0 3 43 91 94 195 52 105 140 285 196 400 56 116 149 305 205 420 56 116 143
293 192 395 108 222 241 495 390 800 61 124 181 369 268 545 87 176 161 331
165 345 4 14 11 30 15 35 16 20 70 196 85 277 48 258 6 465 -129 631 -102 124
-311 243 -461 261 -22 2 -40 5 -40 7 0 8 -181 10 -1143 12 -602 1 -1094 1
-1095 1z m593 -1373 c51 -37 64 -93 42 -186 -7 -33 -14 -68 -15 -77 -1 -10 -4
-18 -8 -18 -4 0 -10 -11 -13 -25 -4 -14 -18 -51 -33 -83 -14 -31 -27 -59 -27
-62 -1 -3 -14 -32 -29 -65 -16 -33 -33 -69 -37 -80 -5 -11 -30 -65 -55 -120
-26 -55 -48 -104 -49 -110 -2 -5 -21 -48 -43 -95 -74 -156 -87 -185 -88 -197
-1 -29 -26 -37 -108 -35 -45 2 -142 4 -214 5 -73 1 -133 6 -133 11 0 5 43 91
95 192 52 101 92 184 88 184 -5 0 -3 4 3 8 7 4 45 72 87 152 41 80 107 208
147 285 92 179 101 195 122 219 10 10 15 23 12 28 -3 4 0 8 6 8 7 0 21 11 31
24 10 13 38 33 61 44 49 25 118 22 158 -7z"/>
</g>
</svg>
